<?xml version="1.0" standalone="no"?><!DOCTYPE svg PUBLIC "-//W3C//DTD SVG 1.1//EN" "http://www.w3.org/Graphics/SVG/1.1/DTD/svg11.dtd"><svg t="1561519923304" class="icon" viewBox="0 0 1413 1024" version="1.1" xmlns="http://www.w3.org/2000/svg" p-id="4565" xmlns:xlink="http://www.w3.org/1999/xlink" width="44.15625" height="32"><defs><style type="text/css"></style></defs><path d="M949.774996 0.005069H181.778255c-70.688564 0-127.999095 57.311979-127.999094 127.999095v767.996741c0 70.688564 57.311979 127.999095 127.999094 127.999095h767.996741c70.688564 0 127.999095-57.311979 127.999095-127.999095V128.004164c0-70.688564-57.311979-127.999095-127.999095-127.999095zM853.775132 544.002852H597.776219v255.998913c0 17.663813-14.303553 31.999955-31.999955 31.999955s-31.999955-14.335418-31.999955-31.999955V544.002852H277.777395c-17.695677 0-31.999955-14.335418-31.999954-31.999955 0-17.695677 14.303553-31.999955 31.999954-31.999955h255.998914V224.004028c0-17.695677 14.303553-31.999955 31.999955-31.999954s31.999955 14.303553 31.999955 31.999954v255.998914h255.998913c17.695677 0 31.999955 14.303553 31.999955 31.999955 0 17.663813-14.303553 31.999955-31.999955 31.999955z" p-id="4566"></path></svg>