<?xml version="1.0" standalone="no"?><!DOCTYPE svg PUBLIC "-//W3C//DTD SVG 1.1//EN" "http://www.w3.org/Graphics/SVG/1.1/DTD/svg11.dtd"><svg t="1561455325151" class="icon" viewBox="0 0 1024 1024" version="1.1" xmlns="http://www.w3.org/2000/svg" p-id="7493" xmlns:xlink="http://www.w3.org/1999/xlink" width="32" height="32"><defs><style type="text/css"></style></defs><path d="M520.383948 963.562513c-3.41068 0-6.822382 0-10.233062 0-1.372254-0.340761-2.734274-0.926092-4.118807-0.986467-16.915251-0.737804-33.851992-1.113357-50.747801-2.163269-15.610536-0.970094-31.212886-2.323928-46.75179-4.100388-14.287401-1.633197-28.727275-3.032056-42.665729-6.355755-23.605627-5.630231-47.096644-11.981892-70.218248-19.339464-28.123524-8.949836-54.267974-22.463618-78.771041-38.890752-24.036439-16.114003-45.51052-35.136242-63.975057-57.582463-15.380292-18.697851-28.440749-38.85596-39.463804-60.310597-12.994965-25.293059-22.547529-52.006468-29.770024-79.44233-4.364401-16.57756-7.293103-33.55114-10.390651-50.434669-1.871627-10.19827-2.968611-20.549012-4.168949-30.858822-1.496074-12.842493-3.082198-25.690102-3.990894-38.579667-0.822738-11.664667-0.76748-23.390733-1.171686-35.088146-0.029676-0.871857-0.638543-1.724271-0.978281-2.584871 0-15.349593 0-30.699186 0-46.048779 0.330528-0.51984 0.924045-1.025353 0.953721-1.562589 1.078565-19.227923 1.946328-38.468127 3.201925-57.68377 0.689708-10.55438 1.515516-21.147646 3.179412-31.580253 2.598174-16.295128 5.798053-32.502251 9.031701-48.687886 6.825452-34.155914 18.016329-66.896596 33.509185-98.05013 10.803044-21.722744 22.945595-42.840714 39.455617-60.789505 14.041808-15.265682 28.321022-30.574343 44.192501-43.831274 20.789489-17.364483 44.428885-30.636764 69.295226-41.735543 22.905686-10.223852 46.390563-18.717294 70.77902-24.190959 22.438035-5.034666 45.185108-8.810666 67.916832-12.378935 15.397688-2.417049 30.976502-3.821025 46.52257-5.098111 10.796904-0.887206 21.676695-0.763386 32.515554-1.171686 1.042749-0.038886 2.064009-0.641613 3.095501-0.981351 17.396205 0 34.792411 0 52.188616 0 0.51984 0.330528 1.025353 0.921999 1.563612 0.954745 18.041912 1.078565 36.114522 1.76725 54.121642 3.245927 14.021342 1.151219 28.069289 2.675946 41.915645 5.112438 20.011776 3.520173 39.963177 7.543813 59.741639 12.196787 34.972513 8.227382 67.921949 21.790282 98.859565 40.024575 28.545126 16.824177 53.954843 37.44789 75.525114 62.814628 16.471137 19.36914 30.215162 40.461527 41.712007 63.013149 10.614755 20.821211 19.358907 42.472324 25.612331 65.031109 3.689019 13.307074 7.598049 26.621311 10.106172 40.172955 3.739161 20.210297 6.797823 40.576137 9.262968 60.981886 2.058892 17.038048 3.062755 34.215266 4.131087 51.355645 0.728594 11.6749 0.747014 23.393803 1.149173 35.091216 0.024559 0.701988 0.633427 1.382487 0.971118 2.073218 0 5.799076 0 11.597129 0 17.396205-0.337691 0.690732-0.944512 1.37123-0.972141 2.074242-0.735757 18.619056-1.378393 37.242206-2.118244 55.861262-0.214894 5.393847-0.394996 10.815323-1.085728 16.160051-2.231831 17.263176-3.986801 34.631752-7.250124 51.706639-3.996011 20.914332-8.661264 41.754986-14.246469 62.297858-7.735172 28.449959-19.627013 55.291281-34.116005 80.998779-10.982122 19.484773-23.828708 37.641295-38.918381 54.074569-17.841344 19.431561-37.805024 36.437887-60.3546 50.354851-20.678972 12.761652-42.246173 23.633257-64.98813 32.181957-22.961968 8.630564-46.366004 15.797801-70.560032 19.973914-19.756973 3.41068-39.563064 6.686283-59.46023 9.081843-17.373693 2.091638-34.892695 3.071965-52.371788 4.16281-11.504008 0.718361-23.049972 0.743944-34.57547 1.146103C521.756201 962.616978 521.074679 963.225845 520.383948 963.562513zM527.547091 527.634072c2.623757 0 4.637624 0 6.65149 0 49.799196 0 99.599416-0.013303 149.398612 0.020466 5.143137 0.00307 9.194406-1.835811 11.800767-6.335289 6.40692-11.059893-0.695848-23.336498-13.56904-23.345708-49.288566-0.036839-98.577133-0.01535-147.865699-0.01535-1.992377 0-3.985778 0-6.417153 0 0-2.549056 0-4.555759 0-6.561439 0-49.288566-0.106424-98.578156 0.132006-147.864676 0.030699-6.290263-2.431376-10.44898-7.356548-13.334703-5.514597-3.231601-11.218506-3.041266-16.382109 1.010003-4.561899 3.579525-6.074346 8.590656-6.073322 14.205537 0.007163 48.776913 0.004093 97.553827 0.004093 146.33074 0 1.972934 0 3.946892 0 6.214539-2.711761 0-4.737908 0-6.764054 0-49.117674 0-98.236372 0.010233-147.354046-0.008186-10.402931-0.004093-15.21861 7.270591-15.650445 15.387455-0.431835 8.105608 6.646374 14.294564 15.519462 14.294564 49.288566 0.00307 98.577133 0.001023 147.865699 0.001023 1.989307 0 3.978614 0 6.382361 0 0 3.083222 0 5.606695 0 8.130168 0 48.776913 0.057305 97.553827-0.050142 146.33074-0.020466 9.277294 8.087189 16.2061 16.116049 15.551184 8.54256-0.695848 13.608949-5.792936 13.609972-15.309684 0.001023-47.412846 0-94.824669 0-142.237515C527.547091 536.193005 527.547091 532.286022 527.547091 527.634072z" p-id="7494"></path></svg>