<?xml version="1.0" standalone="no"?><!DOCTYPE svg PUBLIC "-//W3C//DTD SVG 1.1//EN" "http://www.w3.org/Graphics/SVG/1.1/DTD/svg11.dtd"><svg t="1561517763669" class="icon" viewBox="0 0 1024 1024" version="1.1" xmlns="http://www.w3.org/2000/svg" p-id="17160" xmlns:xlink="http://www.w3.org/1999/xlink" width="32" height="32"><defs><style type="text/css"></style></defs><path d="M937.6 342.08c37.76-65.6 7.68-154.24-67.84-197.76a151.68 151.68 0 0 0-192 24.64 437.76 437.76 0 0 0-328.64 0 151.68 151.68 0 0 0-192-24.64c-78.4 43.52-108.8 132.16-70.72 197.76A121.6 121.6 0 0 0 126.08 384 368.64 368.64 0 0 0 96 528c0 215.68 186.56 391.04 416 391.04s416-175.04 416-391.04a368.64 368.64 0 0 0-30.08-144 121.6 121.6 0 0 0 39.68-41.92zM896 528c0 198.08-172.16 359.04-384 359.04S128 726.08 128 528a336.96 336.96 0 0 1 26.88-130.88 165.12 165.12 0 0 0 136.32-15.04 150.4 150.4 0 0 0 72.96-185.28 407.04 407.04 0 0 1 295.04 0 150.4 150.4 0 0 0 72.96 185.28 165.12 165.12 0 0 0 136.32 15.04A336.96 336.96 0 0 1 896 528z" fill="#DD684F" p-id="17161"></path><path d="M528 676.48v-5.76h-32a64 64 0 0 1-64 64v32a96 96 0 0 0 77.44-40.32 96 96 0 0 0 80.96 45.76v-32a64 64 0 0 1-62.4-63.68z" fill="#DD684F" p-id="17162"></path><path d="M436.48 451.52c-23.68-40.96-87.36-48.64-142.08-16.96s-80 90.56-56.32 131.52 87.36 48.64 142.08 16.96 80-90.56 56.32-131.52z m-99.2 76.48a19.2 19.2 0 1 1 19.2-19.2 19.2 19.2 0 0 1-19.2 19.2zM729.6 434.56c-54.72-32-118.4-24-142.08 16.96s1.6 99.84 56.32 131.52 118.4 24 142.08-16.96-1.6-99.84-56.32-131.52z m-42.88 93.44a19.2 19.2 0 1 1 19.2-19.2 19.2 19.2 0 0 1-19.2 19.2z" fill="#DD684F" p-id="17163"></path></svg>