<?xml version="1.0" standalone="no"?><!DOCTYPE svg PUBLIC "-//W3C//DTD SVG 1.1//EN" "http://www.w3.org/Graphics/SVG/1.1/DTD/svg11.dtd"><svg t="1561455628130" class="icon" viewBox="0 0 1024 1024" version="1.1" xmlns="http://www.w3.org/2000/svg" p-id="10169" xmlns:xlink="http://www.w3.org/1999/xlink" width="32" height="32"><defs><style type="text/css"></style></defs><path d="M654.287657 278.81717c-10.737552 0-19.442818-8.705266-19.442818-19.442818 0-38.956244-29.600155-73.190953-54.429657-95.051843-28.408003-25.007557-58.150398-40.470737-67.51058-43.548842-9.215896 2.661619-38.8314 17.36346-67.340711 42.490743-24.593118 21.676695-53.909817 55.945173-53.909817 96.108918 0 10.737552-8.705266 19.442818-19.442818 19.442818-3.497661 0-6.771217-0.936325-9.606799-2.553149-1.044796-0.541329-2.057869-1.175779-3.019777-1.924839-0.86981-0.670266-52.587706-40.114626-115.979478-48.374754l0 134.061298c0 156.188248 118.515231 278.534737 269.812075 278.534737 151.297868 0 269.813099-122.347512 269.813099-278.534737l0-134.186142c-56.806797 7.087419-104.435561 39.405475-114.877377 46.932915C664.812361 276.489148 659.826813 278.81717 654.287657 278.81717z" p-id="10170"></path><path d="M451.02937 898.587686c-7.584746 0-14.788821-4.464685-17.921161-11.887748l0 0c-0.138146-0.325411-14.165628-32.995485-43.862997-67.734684-38.871309-45.471634-85.019349-73.021084-137.160893-81.885985-50.696636-8.620331-90.01513 0.231267-116.865661 26.303063-19.269879 18.711154-24.954345 39.680744-25.006534 39.887452-2.620687 10.414187-13.186324 16.731056-23.599488 14.110369-10.413164-2.62171-16.731056-13.187347-14.110369-23.600511 0.322341-1.281179 8.207939-31.67235 35.626405-58.295708 24.917506-24.196075 71.249741-50.207495 150.470013-36.741809 60.915371 10.355859 116.618021 43.549865 161.085792 95.993285 33.249265 39.21207 48.622394 75.356268 49.259914 76.874855 4.157693 9.900487-0.496304 21.297049-10.396791 25.454742C456.090643 898.097522 453.538517 898.587686 451.02937 898.587686z" p-id="10171"></path><path d="M658.380882 299.097052c-10.737552 0-19.442818-8.705266-19.442818-19.442818 0-38.956244-29.600155-73.190953-54.429657-95.051843-28.408003-25.007557-58.150398-40.470737-67.51058-43.548842-9.215896 2.661619-38.8314 17.36346-67.340711 42.490743-24.593118 21.676695-53.909817 55.945173-53.909817 96.108918 0 10.737552-8.705266 19.442818-19.442818 19.442818-3.497661 0-6.771217-0.936325-9.606799-2.553149-1.044796-0.541329-2.057869-1.175779-3.019777-1.924839-0.86981-0.670266-52.587706-40.114626-115.979478-48.374754l0 134.061298c0 156.188248 118.515231 278.534737 269.812075 278.534737 151.297868 0 269.813099-122.347512 269.813099-278.534737l0-134.186142c-56.806797 7.087419-104.435561 39.405475-114.877377 46.932915C668.905586 296.769031 663.920038 299.097052 658.380882 299.097052z" p-id="10172"></path><path d="M824.204581 219.212654c-2.566452-7.763824-9.881045-13.334703-18.453281-13.334703-0.115634 0-0.232291 0.001023-0.347924 0.00307-54.952566 0.963954-103.710037 23.716144-132.325771 40.466644-11.339256-39.899732-41.036625-72.414263-66.837244-94.361111-15.565511-13.240559-33.620725-25.854854-50.842968-35.517935-26.00528-14.594393-35.07382-14.594393-38.054711-14.594393-17.677615 0-58.089 22.258956-90.081645 49.619094-25.523303 21.827121-54.920844 54.440913-65.923432 95.098915-28.557406-16.773012-77.519538-39.743166-132.741233-40.711214-10.697643-0.209778-19.59222 8.361435-19.780509 19.098987-0.010233 0.557702 0.01842 1.106194 0.054235 1.65264-0.021489 0.378623-0.057305 0.754177-0.057305 1.13894l0 152.532999c0 84.862783 31.459502 164.381861 88.583524 223.909629 53.43705 55.685253 124.193557 88.243787 200.920032 92.906993-0.147356 0.966001-0.24764 1.948375-0.24764 2.956332l0 202.604394c0 10.737552 8.704243 19.442818 19.442818 19.442818s19.442818-8.705266 19.442818-19.442818L536.954345 700.077539c0-1.007957-0.100284-1.990331-0.24764-2.956332 76.725452-4.662183 147.482983-37.220716 200.920032-92.906993 57.124022-59.527768 88.583524-139.046846 88.583524-223.909629L826.210261 227.77261C826.210261 224.696552 825.476551 221.798549 824.204581 219.212654zM787.324626 380.305609c0 156.188248-118.515231 278.534737-269.813099 278.534737-151.296845 0-269.812075-122.347512-269.812075-278.534737L247.699452 246.24431c63.391772 8.261151 115.109668 47.704488 115.979478 48.374754 0.961908 0.74906 1.974981 1.38351 3.019777 1.924839 2.835581 1.616824 6.109138 2.553149 9.606799 2.553149 10.737552 0 19.442818-8.705266 19.442818-19.442818 0-40.163745 29.315676-74.433246 53.909817-96.108918 28.508287-25.128307 58.124815-39.829124 67.340711-42.490743 9.359158 3.078105 39.102576 18.541285 67.51058 43.548842 24.830525 21.859867 54.429657 56.095599 54.429657 95.051843 0 10.737552 8.705266 19.442818 19.442818 19.442818 5.539156 0 10.524704-2.328022 14.066367-6.045693 10.441816-7.52744 58.07058-39.845497 114.877377-46.932915L787.325649 380.305609z" p-id="10173"></path><path d="M571.273988 898.587686c7.584746 0 14.788821-4.464685 17.921161-11.887748l0 0c0.138146-0.325411 14.165628-32.995485 43.862997-67.734684 38.871309-45.471634 85.019349-73.021084 137.160893-81.885985 50.696636-8.620331 90.01513 0.231267 116.865661 26.303063 19.269879 18.711154 24.954345 39.680744 25.006534 39.887452 2.620687 10.414187 13.186324 16.731056 23.599488 14.110369 10.413164-2.62171 16.731056-13.187347 14.110369-23.600511-0.322341-1.281179-8.207939-31.67235-35.626405-58.295708-24.917506-24.196075-71.249741-50.207495-150.470013-36.741809-60.915371 10.355859-116.618021 43.549865-161.085792 95.993285-33.249265 39.21207-48.622394 75.356268-49.259914 76.874855-4.157693 9.900487 0.496304 21.297049 10.396791 25.454742C566.212716 898.097522 568.764841 898.587686 571.273988 898.587686z" p-id="10174"></path></svg>