<?xml version="1.0" standalone="no"?><!DOCTYPE svg PUBLIC "-//W3C//DTD SVG 1.1//EN" "http://www.w3.org/Graphics/SVG/1.1/DTD/svg11.dtd"><svg t="1561455273576" class="icon" viewBox="0 0 1024 1024" version="1.1" xmlns="http://www.w3.org/2000/svg" p-id="4205" xmlns:xlink="http://www.w3.org/1999/xlink" width="32" height="32"><defs><style type="text/css"></style></defs><path d="M192.928011 490.988454l299.44293 0 0 180.357717c0 10.335393 8.378831 18.714224 18.714224 18.714224l0 0c10.335393 0 18.714224-8.378831 18.714224-18.714224l0-180.357717 299.44293 0 0 199.066825c0 10.335393 8.378831 18.714224 18.714224 18.714224l0 0c10.335393 0 18.714224-8.378831 18.714224-18.714224L866.670765 484.363569c0-17.012466-13.791098-30.803563-30.803563-30.803563L529.800411 453.560006l0-81.72635c0-10.335393-8.378831-18.714224-18.714224-18.714224l0 0c-10.335393 0-18.714224 8.378831-18.714224 18.714224l0 81.72635L186.302103 453.560006c-17.012466 0-30.803563 13.791098-30.803563 30.803563l0 205.691709c0 10.335393 8.378831 18.714224 18.714224 18.714224l0 0c10.335393 0 18.714224-8.378831 18.714224-18.714224L192.926988 490.988454 192.928011 490.988454zM267.791046 738.927359 80.640622 738.927359c-10.346649 0-18.715247 8.382924-18.715247 18.715247l0 181.449585c0 10.327206 8.368598 18.714224 18.715247 18.714224l187.150424 0c10.326183 0 18.714224-8.387018 18.714224-18.714224L286.505269 757.642606C286.505269 747.310284 278.117229 738.927359 267.791046 738.927359L267.791046 738.927359zM604.65833 738.927359 417.513022 738.927359c-10.345626 0-18.720364 8.382924-18.720364 18.715247l0 181.449585c0 10.327206 8.374738 18.714224 18.720364 18.714224l187.146331 0c10.327206 0 18.720364-8.387018 18.720364-18.714224L623.379717 757.642606C623.378693 747.310284 614.985536 738.927359 604.65833 738.927359L604.65833 738.927359zM941.532777 738.927359l-187.152471 0c-10.345626 0-18.714224 8.382924-18.714224 18.715247l0 181.449585c0 10.327206 8.372691 18.714224 18.714224 18.714224l187.152471 0c10.32516 0 18.714224-8.387018 18.714224-18.714224L960.247001 757.642606C960.245977 747.310284 951.857936 738.927359 941.532777 738.927359L941.532777 738.927359zM361.363188 322.556347l299.444976 0c10.326183 0 18.714224-8.377808 18.714224-18.715247L679.522388 79.773881c0-10.345626-8.388041-18.724457-18.714224-18.724457L361.363188 61.049424c-10.340509 0-18.714224 8.377808-18.714224 18.724457l0 224.068242C342.648964 314.178539 351.022679 322.556347 361.363188 322.556347L361.363188 322.556347zM361.363188 322.556347" p-id="4206"></path></svg>