<?xml version="1.0" standalone="no"?><!DOCTYPE svg PUBLIC "-//W3C//DTD SVG 1.1//EN" "http://www.w3.org/Graphics/SVG/1.1/DTD/svg11.dtd"><svg t="1561455506273" class="icon" viewBox="0 0 1024 1024" version="1.1" xmlns="http://www.w3.org/2000/svg" p-id="8233" xmlns:xlink="http://www.w3.org/1999/xlink" width="32" height="32"><defs><style type="text/css"></style></defs><path d="M833.318 775.501 190.682 775.501c-14.128 0-25.583 11.453-25.583 25.583s11.454 25.583 25.583 25.583l642.637 0c14.13 0 25.582-11.453 25.582-25.583S847.448 775.501 833.318 775.501z" p-id="8234"></path><path d="M923.369 186.077 100.631 186.077c-36.676 0-66.515 29.838-66.515 66.515l0 372.483c0 36.677 29.838 66.515 66.515 66.515l822.738 0c36.676 0 66.515-29.838 66.515-66.515L989.884 252.592C989.884 215.916 960.045 186.077 923.369 186.077zM165.099 640.425c0 0 0-69.924 0-112.591 2.734-26 43.876-34 50.972 0l0.193 112.591L165.099 640.425zM291.788 640.758c0 0 0-33.924 0-76.591 2.734-26.001 43.877-34 50.973 0l0.193 76.591L291.788 640.758zM419.167 640.758c0 0 0-33.924 0-76.591 2.734-26.001 43.877-34 50.973 0l0.193 76.591L419.167 640.758zM546.5 640.758c0 0 0-33.924 0-76.591 2.734-26.001 43.877-34 50.973 0l0.193 76.591L546.5 640.758zM672.834 640.758c0 0 0-33.924 0-76.591 2.734-26.001 43.877-34 50.973 0L724 640.758 672.834 640.758zM799.527 640.425c0 0 0-69.924 0-112.591 2.734-26 43.877-34 50.973 0l0.193 112.591L799.527 640.425z" p-id="8235"></path></svg>